<?xml version="1.0" encoding="UTF-8"?> <!-- Generator: Adobe Illustrator 23.1.1, SVG Export Plug-In . SVG Version: 6.00 Build 0) --> <svg xmlns="http://www.w3.org/2000/svg" xmlns:xlink="http://www.w3.org/1999/xlink" id="Layer_1" x="0px" y="0px" viewBox="0 0 397.9 347.9" style="enable-background:new 0 0 397.9 347.9;" xml:space="preserve"> <style type="text/css"> .st0{fill:#1A3F71;} .st1{fill:#F68922;} </style> <g> <g> <rect x="108.5" y="190.9" transform="matrix(0.7071 -0.7071 0.7071 0.7071 -137.513 167.0504)" class="st0" width="48.8" height="117.2"></rect> <rect x="73.7" y="175.3" transform="matrix(0.7071 -0.7071 0.7071 0.7071 -101.8729 153.4728)" class="st0" width="121.3" height="48.8"></rect> </g> <rect x="11.8" y="98.4" transform="matrix(0.7071 -0.7071 0.7071 0.7071 -54.983 112.8304)" class="st0" width="193.8" height="48.8"></rect> <g> <path class="st1" d="M250.4,243.5c0-0.8-0.3-1.4-0.9-2c-0.6-0.5-1.8-0.9-3.4-1.3c-2.3-0.5-4.1-1.2-5.4-2.1 c-1.2-0.9-1.9-2.1-1.9-3.6c0-1.6,0.7-3,2.1-4.1c1.4-1.2,3.2-1.7,5.4-1.7c2.3,0,4.1,0.6,5.5,1.8c1.4,1.2,2.1,2.7,2,4.3l0,0.1h-3.4 c0-0.9-0.4-1.6-1.1-2.3c-0.8-0.7-1.7-1-2.9-1c-1.3,0-2.2,0.3-2.9,0.9c-0.6,0.6-0.9,1.3-0.9,2.1c0,0.8,0.3,1.4,0.8,1.8 s1.7,0.8,3.4,1.2c2.4,0.5,4.3,1.2,5.5,2.2c1.3,0.9,1.9,2.2,1.9,3.7c0,1.8-0.7,3.2-2.1,4.3c-1.4,1.1-3.3,1.7-5.6,1.7 c-2.5,0-4.5-0.6-6-1.9c-1.5-1.3-2.1-2.8-2.1-4.5l0-0.1h3.4c0.1,1.3,0.5,2.2,1.4,2.8c0.9,0.6,1.9,0.9,3.1,0.9c1.3,0,2.3-0.3,3-0.8 C250.1,245.1,250.4,244.4,250.4,243.5z"></path> <path class="st1" d="M257.7,238.8c0-2.9,0.8-5.4,2.4-7.3c1.6-1.9,3.7-2.9,6.5-2.9c2.8,0,4.9,0.9,6.5,2.8c1.6,1.9,2.4,4.3,2.4,7.3 v0.4c0,3-0.8,5.4-2.4,7.3c-1.6,1.9-3.8,2.8-6.5,2.8c-2.7,0-4.9-0.9-6.5-2.8c-1.6-1.9-2.4-4.3-2.4-7.3L257.7,238.8L257.7,238.8z M261.3,239.2c0,2.1,0.4,3.8,1.3,5.2c0.9,1.4,2.2,2.1,4,2.1c1.7,0,3-0.7,3.9-2.1s1.3-3.1,1.3-5.2v-0.4c0-2.1-0.5-3.8-1.3-5.2 c-0.9-1.4-2.2-2.1-4-2.1c-1.7,0-3,0.7-3.9,2.1c-0.9,1.4-1.3,3.1-1.3,5.2L261.3,239.2L261.3,239.2z"></path> <path class="st1" d="M281.4,248.9v-17.2h-3.1V229h3.1v-2.5c0-2.1,0.5-3.8,1.7-4.9s2.7-1.7,4.6-1.7c0.4,0,0.8,0,1.3,0.1 c0.4,0.1,0.9,0.2,1.4,0.3l-0.4,2.8c-0.2-0.1-0.5-0.1-0.8-0.1c-0.3,0-0.6-0.1-1-0.1c-1.1,0-1.8,0.3-2.3,0.9 c-0.5,0.6-0.8,1.5-0.8,2.7v2.5h3.6v2.7H285v17.2H281.4L281.4,248.9z"></path> <path class="st1" d="M298.5,224.2v4.8h3.8v2.7h-3.8v12.1c0,0.9,0.2,1.6,0.6,2c0.4,0.4,0.9,0.6,1.5,0.6c0.2,0,0.4,0,0.7-0.1 c0.3-0.1,0.5-0.1,0.6-0.2l0.5,2.5c-0.3,0.2-0.7,0.4-1.2,0.5c-0.5,0.1-1,0.2-1.6,0.2c-1.5,0-2.6-0.4-3.5-1.3 c-0.9-0.9-1.3-2.3-1.3-4.2v-12.1h-3.2V229h3.2v-4.8L298.5,224.2L298.5,224.2z"></path> <path class="st1" d="M312.5,241.6l0.5,2.6h0.1l0.5-2.6l4-12.6h2.9l4,12.6l0.5,2.8h0.1l0.6-2.8l2.9-12.6h3.8l-5.8,19.9h-2.9 l-3.9-12.1l-0.8-3.2h-0.1l-0.7,3.2l-3.9,12.1h-2.9l-5.8-19.9h3.8L312.5,241.6z"></path> <path class="st1" d="M348.1,248.9c-0.1-0.6-0.2-1.1-0.3-1.6c-0.1-0.5-0.1-0.9-0.1-1.4c-0.7,1-1.6,1.8-2.6,2.4 c-1.1,0.6-2.3,1-3.5,1c-2.1,0-3.6-0.5-4.7-1.6c-1.1-1.1-1.6-2.5-1.6-4.4c0-1.9,0.8-3.4,2.3-4.4c1.5-1.1,3.6-1.6,6.2-1.6h3.9v-2 c0-1.2-0.4-2.1-1.1-2.8c-0.7-0.7-1.7-1-3-1c-1.2,0-2.1,0.3-2.8,0.9s-1.1,1.3-1.1,2.1l-3.4,0l0-0.1c-0.1-1.4,0.6-2.8,2-4 c1.4-1.2,3.3-1.8,5.6-1.8c2.3,0,4.1,0.6,5.4,1.7c1.4,1.1,2.1,2.8,2.1,4.9v9.6c0,0.7,0,1.4,0.1,2.1c0.1,0.7,0.2,1.3,0.4,2H348.1 L348.1,248.9z M342.1,246.3c1.3,0,2.5-0.3,3.5-1c1.1-0.7,1.7-1.4,2.1-2.3v-3.2h-4.1c-1.5,0-2.6,0.4-3.5,1.1 c-0.9,0.7-1.3,1.6-1.3,2.6c0,0.9,0.3,1.6,0.8,2.1C340.2,246,341,246.3,342.1,246.3z"></path> <path class="st1" d="M366,232.2l-1.9-0.1c-1,0-1.8,0.2-2.4,0.7c-0.7,0.5-1.2,1.1-1.5,1.9v14.2h-3.6V229h3.2l0.3,2.9 c0.6-1,1.3-1.8,2.1-2.4c0.8-0.6,1.8-0.9,2.9-0.9c0.3,0,0.5,0,0.8,0.1c0.2,0,0.4,0.1,0.6,0.1L366,232.2z"></path> <path class="st1" d="M377.6,249.3c-2.9,0-5.1-0.9-6.7-2.7c-1.6-1.8-2.4-4.2-2.4-7.2v-0.8c0-2.9,0.8-5.2,2.5-7.1 c1.6-1.9,3.7-2.8,6-2.8c2.7,0,4.6,0.8,6,2.5c1.3,1.6,2,3.8,2,6.6v1.9h-12.7l-0.1,0.1c0,2,0.4,3.6,1.3,4.9c0.9,1.2,2.2,1.9,4,1.9 c1.2,0,2.3-0.2,3.2-0.5c0.9-0.3,1.7-0.8,2.4-1.4l1.4,2.3c-0.7,0.7-1.6,1.3-2.8,1.7C380.6,249,379.2,249.3,377.6,249.3z M377,231.5 c-1.3,0-2.3,0.5-3.1,1.5c-0.8,1-1.3,2.2-1.5,3.7l0,0.1h9v-0.3c0-1.4-0.4-2.6-1.1-3.6C379.6,232,378.5,231.5,377,231.5z"></path> </g> <path class="st0" d="M215.9,158.3v-36.9h-6.7v-5.8h6.7v-4.6c0-4.8,1.4-8.5,4.2-11.1c2.8-2.6,6.7-3.9,11.6-3.9 c1.8,0,3.5,0.2,5.2,0.6c1.7,0.4,3.7,1,6,1.8l-1.3,6.3c-1.4-0.5-2.9-1-4.4-1.4c-1.6-0.4-3.2-0.6-4.8-0.6c-3.1,0-5.3,0.7-6.6,2 c-1.4,1.4-2,3.5-2,6.3v4.6h8.5v5.8h-8.5v36.9L215.9,158.3L215.9,158.3z M246.7,211.5h-7.8v-88.7l7.8-7.1V211.5z"></path> <path class="st0" d="M279.7,122.5l-4-0.2c-2,0-3.8,0.5-5.2,1.5c-1.4,1-2.5,2.3-3.3,4.1v30.4h-7.8v-42.6h6.9l0.7,6.2 c1.2-2.2,2.7-3.9,4.5-5.2c1.8-1.2,3.8-1.9,6.1-1.9c0.6,0,1.1,0,1.7,0.1c0.5,0.1,1,0.2,1.3,0.3L279.7,122.5z"></path> <path class="st0" d="M309.8,146.8c0-1.7-0.6-3.1-2-4.2c-1.3-1.1-3.8-2-7.4-2.8c-5-1.1-8.9-2.6-11.6-4.5c-2.7-1.9-4-4.5-4-7.8 c0-3.5,1.5-6.4,4.4-8.9s6.8-3.7,11.5-3.7c4.8,0,8.7,1.3,11.7,3.9c3,2.6,4.4,5.7,4.3,9.2l-0.1,0.2h-7.4c0-1.8-0.8-3.5-2.4-5 c-1.6-1.5-3.7-2.2-6.1-2.2c-2.7,0-4.8,0.6-6.1,1.9c-1.4,1.2-2,2.7-2,4.4c0,1.7,0.6,3,1.8,3.9c1.2,0.9,3.6,1.8,7.2,2.5 c5.2,1.1,9.2,2.7,11.9,4.7c2.7,2,4.1,4.7,4.1,7.9c0,3.8-1.5,6.9-4.6,9.3c-3.1,2.4-7.1,3.6-12,3.6c-5.4,0-9.7-1.4-12.8-4.1 s-4.6-6-4.4-9.7l0.1-0.2h7.4c0.1,2.8,1.2,4.8,3.1,6c1.9,1.3,4.2,1.9,6.7,1.9c2.8,0,4.9-0.6,6.5-1.8 C309.1,150.1,309.8,148.6,309.8,146.8z"></path> <path class="st0" d="M336.7,105.4v10.3h8.1v5.8h-8.1v25.9c0,2,0.4,3.4,1.2,4.2c0.8,0.8,1.9,1.2,3.3,1.2c0.4,0,0.9-0.1,1.5-0.2 s1-0.2,1.4-0.4l1.1,5.3c-0.6,0.5-1.4,0.9-2.6,1.2c-1.1,0.3-2.2,0.5-3.4,0.5c-3.1,0-5.7-0.9-7.5-2.9c-1.9-1.9-2.8-4.9-2.8-9v-25.9 h-6.8v-5.8h6.8v-10.3L336.7,105.4L336.7,105.4L336.7,105.4z"></path> <path class="st0" d="M267.1,211.5h-7.7v-42.3h7.7V211.5z"></path> <path class="st0" d="M285.6,169.2l0.5,6.3c1.4-2.2,3.2-4,5.3-5.2c2.1-1.2,4.5-1.9,7.2-1.9c4.6,0,8.1,1.3,10.6,4s3.7,6.8,3.7,12.4 v26.7h-7.7v-26.5c0-3.7-0.7-6.4-2.2-7.9c-1.5-1.6-3.7-2.3-6.7-2.3c-2.4,0-4.4,0.5-6,1.4c-1.7,0.9-3,2.3-3.9,4v31.4h-7.7v-42.3 L285.6,169.2L285.6,169.2z"></path> <path class="st0" d="M341.1,212.3c-6.1,0-10.8-1.9-14.2-5.8c-3.4-3.9-5.1-9-5.1-15.3v-1.7c0-6.1,1.8-11.1,5.3-15.1s7.8-6,12.8-6 c5.6,0,9.9,1.8,12.7,5.3c2.8,3.5,4.2,8.2,4.2,14v4.1h-27l-0.1,0.2c0,4.2,0.9,7.7,2.8,10.3s4.7,4,8.6,4c2.6,0,4.9-0.4,6.9-1.1 s3.7-1.8,5.1-3.1l3,5c-1.5,1.5-3.5,2.7-6,3.7C347.5,211.8,344.5,212.3,341.1,212.3z M339.8,174.5c-2.7,0-4.9,1-6.7,3.1 c-1.8,2.1-2.8,4.7-3.2,8l0.1,0.2h19.1v-0.6c0-3.1-0.8-5.6-2.3-7.6S343,174.5,339.8,174.5z"></path> </g> </svg> 